<?xml version="1.0" ?><svg xmlns="http://www.w3.org/2000/svg" xmlns:xlink="http://www.w3.org/1999/xlink" width="1000" height="1000"><path transform="scale(1.95312 1.95312)" d="M320.809 461.015C299.381 475.475 250.66 475.03 226.469 471.726C214.463 470.086 188.813 465.855 184.043 452.328C180.266 441.617 190.455 433.76 198.686 429.408C205.016 426.062 208.022 425.83 211.421 419.208L215.67 410.156C187.077 402.712 165.41 384.453 144.468 364.726L127.368 348.352C124.528 345.374 121.782 342.236 119.327 338.931L115.83 333.847C113.937 330.974 112.705 332.023 109.375 331.683C83.9436 329.081 77.5099 320.574 74.0347 295.5C73.4493 291.276 73.4785 287.013 73.4747 282.758C73.455 261.184 74.4857 241.972 97.8623 235.116C102.856 233.651 108.407 234.642 110.279 230.65L113.977 222.5C124.432 200.992 136.759 184.96 162.276 181.405C161.962 180.828 161.744 180.336 161.591 179.697L161.516 179.375C160.521 175.348 160.78 170.985 160.775 166.861L160.877 102.99C159.786 101.507 132.58 94.1602 128.129 91.6426C121.62 87.9613 123.523 80.0646 129.978 77.2931C135.75 74.8148 142.119 73.1552 148.094 71.1901L246.99 38.0907C249.856 37.1786 252.625 36.0498 255.539 35.2816L256.544 35.2425C258.144 35.2848 259.945 35.9594 261.459 36.4529L348.956 66.2146C359.777 69.8572 370.946 72.7227 381.583 76.864C392.16 80.982 389.434 86.3324 389.442 95.91L389.483 128.406C389.594 136.428 396.021 134.427 395.236 145.276C394.984 148.744 392.817 152.391 390.215 154.609C375.33 167.298 357.38 143.535 372.187 132.362L372.751 131.932C373.939 130.803 373.537 128.868 373.541 127.408L373.626 96.0364C372.613 96.8503 371.411 96.9603 370.21 97.3664L357.627 101.299C355.75 101.866 353.482 102.243 351.791 103.188L351.793 166.004C351.779 172.294 351.769 175.626 350.186 181.615C374.358 184.066 386.784 200.265 397.269 220.945C399.194 224.742 401.446 228.784 402.814 232.81C402.993 233.338 405.368 233.331 406.056 233.395C421.5 234.837 433.516 242.003 436.426 258L437.569 266.28C439.712 279.352 438.604 306.528 432.765 316.906C427.638 326.018 415.442 330.363 405.622 331.349L399.812 331.74C397.657 331.852 397.517 331.459 396.282 333.323L392.602 338.7C385.732 348.1 376.676 355.786 368.312 363.798C344.507 386.602 327.233 400.625 295.752 409.835C302.23 421.614 299.792 422.011 311.707 428.5C326.44 436.524 337.525 448.162 320.809 461.015ZM255.707 51.5234L157.041 84.8518C162.175 87.0411 167.764 88.442 173.083 90.1474L254.706 116.142C255.432 116.355 255.916 116.357 256.658 116.223L355.61 84.9639C351.416 83.9521 347.445 82.4219 343.368 81.0478L260.957 52.9603C259.377 52.4262 257.375 51.4946 255.707 51.5234ZM176.658 107.44L176.591 166.669C176.587 169.382 176.372 172.292 176.844 174.965C187.459 183.975 216.791 187.504 229.927 188.665L255.568 189.731C270.472 189.706 324.865 186.768 335.558 174.543C336.725 173.209 336.035 166.982 335.996 165.111L335.616 108.294C334.546 108.912 332.812 109.091 331.587 109.484L262.891 131.049C260.486 131.851 258.082 132.815 255.61 133.388L176.658 107.44ZM337.146 196.644C315.3 197.749 293.434 204.206 270.837 205.318L241.5 205.36C227.545 205.051 213.241 202.353 199.524 200.047C180.497 196.848 156.193 191.413 141.455 207.777C132.133 218.128 125.286 233.171 122.459 246.597C120.172 257.457 117.76 279.399 119.767 290.782L121.01 299.826C125.293 326.192 132.615 331.846 150.458 348.691C161.011 358.654 171.404 368.941 183.259 377.37L186.272 379.483C230.803 408.641 289.664 406.898 332.207 374.818C342.461 367.086 351.797 357.978 361.109 349.153C375.432 335.577 382.693 330.646 388.019 311.125C395.823 282.521 394.332 248.874 380.458 222.434C370.965 204.342 358.232 194.839 337.146 196.644ZM406.372 249.706C410.036 271.604 408.837 293.976 403.353 315.463C407.367 314.986 411.206 314.474 414.861 312.622C422.917 307.812 422.58 290.451 422.589 282.131C422.599 271.617 423.282 253.508 410.725 250.605L406.372 249.706ZM103.428 250.343C99.9249 250.808 96.4547 251.496 94.1998 254.522C88.1724 262.61 85.3326 307.009 97.8414 313.335C101.201 314.519 104.575 314.89 108.109 315.158C104.081 297.491 102.432 280.478 103.714 262.359C103.999 258.318 105.061 254.38 105.346 250.375C104.702 250.167 104.087 250.278 103.428 250.343ZM231.153 413.861C225.459 425.261 222.586 436.931 209.563 441.743C205.494 443.246 202.859 444.209 199.931 447.585C210.773 457.44 253.517 458.513 267.25 457.806L281.31 456.383C289.512 455.275 306.332 453.007 312.079 447.352C300.312 437.508 295.494 444.512 286.67 425.978L281.014 414.019C263.443 417.145 248.488 416.528 231.153 413.861Z"/><path transform="scale(1.95312 1.95312)" d="M342.973 312.754C333.692 316.772 323.132 317.424 313.157 316.464L278.191 311.645C265.052 310.197 252.01 310.183 238.87 311.25L218.623 313.641C204.272 315.811 190.02 318.632 175.645 314.898C130.857 303.264 122.957 237.023 168.842 223.375L176.526 221.845C191.272 220.668 205.526 226.536 219.247 231.144C242.179 238.845 258.932 241.445 282.271 234.631C298.349 229.936 314.108 222.183 331.111 221.959C380.087 221.314 391.414 290.302 342.973 312.754ZM330.755 237.616C319.744 238.127 309.489 241.877 299.203 245.525C264.184 257.942 246.869 257.119 212.885 245.502C196.534 239.912 174.323 230.912 160.424 246.264C145.8 262.416 155.177 288.985 173.649 297.499C191.063 305.298 214.711 298.012 232.755 296.146C249.912 294.372 267.592 294.398 284.695 296.742C300.448 298.901 320.807 304.235 336.296 298.423C356.061 291.006 365.804 264.173 352.585 247.613C348.501 242.496 342.325 238.489 335.717 237.794L330.755 237.616Z"/><path transform="scale(1.95312 1.95312)" d="M197.5 284.599C176.528 286.122 173.502 257.536 193.356 254.576C213.014 253.354 217.775 280.396 197.5 284.599Z"/><path transform="scale(1.95312 1.95312)" d="M318.712 284.543C298.805 286.603 294.732 257.173 315.432 254.59C334.919 253.626 339.104 280.463 318.712 284.543Z"/><path transform="scale(1.95312 1.95312)" d="M225.447 362.774C222.784 360.769 219.839 358.46 219.068 355.032C218.15 350.947 221.16 346.369 225.328 345.726C230.51 344.927 232.786 348.558 236.526 351.192C247.489 358.915 262.945 358.485 274.255 351.854C278.022 349.645 280.412 346.342 284.966 345.58C291.421 345.599 295.327 352.257 291.499 357.897C286.189 365.721 272.877 370.34 264.201 371.963C250.554 374.515 236.714 370.484 225.447 362.774Z"/></svg>