<?xml version="1.0" ?><!DOCTYPE svg  PUBLIC '-//W3C//DTD SVG 1.1//EN'  'http://www.w3.org/Graphics/SVG/1.1/DTD/svg11.dtd'><svg height="8.4666mm" style="shape-rendering:geometricPrecision; text-rendering:geometricPrecision; image-rendering:optimizeQuality; fill-rule:evenodd; clip-rule:evenodd" version="1.1" viewBox="0 0 846.66 846.66" width="8.4666mm" xml:space="preserve" xmlns="http://www.w3.org/2000/svg" xmlns:xlink="http://www.w3.org/1999/xlink"><defs><style type="text/css">
   <![CDATA[
    .fil0 {fill:black;fill-rule:nonzero}
   ]]>
  </style></defs><g id="Layer_x0020_1"><path class="fil0" d="M236.65 633.82c68.9,73.74 158.46,97.44 256.96,90.96l226.35 -57.51c12.83,-17.35 17.78,-28.54 15.25,-33.86 -2.66,-5.57 -15.68,-8.58 -38.49,-9.18l-151.85 31.33c-3.34,0.69 -6.65,0.54 -9.73,-0.28l-140.1 -37.67c-3,-0.81 -5.68,-2.21 -7.94,-4.06 -21.82,-16.64 -29.8,-34.61 -22.06,-54.07 6.07,-15.27 23.35,-28.22 53.18,-38.57 3.66,-1.26 7.43,-1.46 10.98,-0.76l104.56 20.38c30.81,-12.22 48.17,-22.25 49.86,-29.72 0.82,-3.68 -11.46,-10.44 -38.79,-20.74l-198.55 -36.16 -65.89 -2.16 -123.71 40.13 -29.6 11.89 54.62 135.94 30.5 -12.26c8.88,-3.55 18.74,-0.7 24.45,6.37zm439.23 -228.2c-1.15,-40.19 1.71,-69.76 28.95,-102.39 27.23,-32.67 80.74,-59.67 80.74,-105.44 0,-44.15 -38.89,-76.79 -81.82,-76.79 -53.31,0 -77.26,38.31 -84.8,86.57l-53.36 -6.52c9.59,-78.47 57.8,-122.75 137.27,-122.75 69.86,0 136.08,40.26 136.08,116.03 0,74.41 -62.4,94.15 -97.34,141.61 -14.82,20.14 -15.46,45.64 -15.91,69.68l-49.81 0zm-9.49 104.36l0 -59.3 59.3 0 0 59.3 -59.3 0zm-578.76 9.65l-31 12.45 54.62 135.94 31 -12.46 -54.62 -135.93zm19.73 195.77c-10.9,4.37 -23.27,-0.92 -27.64,-11.82l-70.47 -175.39c-4.37,-10.9 0.93,-23.28 11.82,-27.64 39.96,-16.05 79.91,-32.11 119.86,-48.16 0.69,-0.31 1.4,-0.58 2.13,-0.82l127.64 -41.38c2.28,-0.74 4.71,-1.11 7.24,-1.03l71.19 2.34c1.02,0.04 2.05,0.15 3.08,0.33l201.64 36.72c1.37,0.22 2.74,0.58 4.09,1.08 52.28,19.54 73.3,43.22 67.14,70.5 -5.17,22.9 -33.11,43.36 -80.42,61.76 -3.94,1.84 -8.48,2.5 -13.08,1.6l-104.93 -20.52c-13.76,5.08 -20.93,9.1 -22.15,12.17 -0.24,0.6 1.35,0.77 4.02,2.01l132.85 35.76 149.13 -30.77c1.48,-0.3 3.01,-0.44 4.58,-0.42 41.75,0.78 68.26,11.69 78.59,33.38 10.25,21.49 2.51,49.29 -24.21,83.77 -2.82,3.76 -6.89,6.61 -11.79,7.86l-235.33 59.76c-1.23,0.31 -2.51,0.52 -3.82,0.61 -107.13,7.51 -206.11,-17.81 -283.71,-94.87 -35.81,14.39 -71.63,28.78 -107.45,43.17z"/></g></svg>